<?xml version="1.0" encoding="UTF-8" standalone="no"?>
<!DOCTYPE svg PUBLIC "-//W3C//DTD SVG 1.1//EN"
 "http://www.w3.org/Graphics/SVG/1.1/DTD/svg11.dtd">
<!-- Generated by graphviz version 2.36.0 (20140111.2315)
 -->
<!-- Title: controllers_diagram Pages: 1 -->
<svg width="627pt" height="617pt"
 viewBox="0.00 0.00 627.00 617.00" xmlns="http://www.w3.org/2000/svg" xmlns:xlink="http://www.w3.org/1999/xlink">
<g id="graph0" class="graph" transform="scale(1 1) rotate(0) translate(4 613)">
<title>controllers_diagram</title>
<polygon fill="none" stroke="none" points="-4,4 -4,-613 623,-613 623,4 -4,4"/>
<!-- _diagram_info -->
<g id="node1" class="node"><title>_diagram_info</title>
<text text-anchor="start" x="314" y="-63.6" font-family="Times,serif" font-size="13.00">Controllers diagram</text>
<text text-anchor="start" x="314" y="-49.6" font-family="Times,serif" font-size="13.00">Date: Feb 23 2016 &#45; 22:02</text>
<text text-anchor="start" x="314" y="-35.6" font-family="Times,serif" font-size="13.00">Migration version: 20160222153846</text>
<text text-anchor="start" x="314" y="-21.6" font-family="Times,serif" font-size="13.00">Generated by RailRoady 1.4.2</text>
<text text-anchor="start" x="314" y="-7.6" font-family="Times,serif" font-size="13.00">http://railroady.prestonlee.com</text>
</g>
<!-- WelcomeController -->
<g id="node2" class="node"><title>WelcomeController</title>
<path fill="none" stroke="black" d="M29,-17.5C29,-17.5 130,-17.5 130,-17.5 136,-17.5 142,-23.5 142,-29.5 142,-29.5 142,-98.5 142,-98.5 142,-104.5 136,-110.5 130,-110.5 130,-110.5 29,-110.5 29,-110.5 23,-110.5 17,-104.5 17,-98.5 17,-98.5 17,-29.5 17,-29.5 17,-23.5 23,-17.5 29,-17.5"/>
<text text-anchor="middle" x="79.5" y="-95.3" font-family="Times,serif" font-size="14.00">WelcomeController</text>
<polyline fill="none" stroke="black" points="17,-87.5 142,-87.5 "/>
<text text-anchor="start" x="25" y="-72.3" font-family="Times,serif" font-size="14.00">Welcome</text>
<polyline fill="none" stroke="black" points="17,-64.5 142,-64.5 "/>
<polyline fill="none" stroke="black" points="17,-40.5 142,-40.5 "/>
<text text-anchor="start" x="25" y="-25.3" font-family="Times,serif" font-size="14.00">_layout</text>
</g>
<!-- EventsController -->
<g id="node3" class="node"><title>EventsController</title>
<path fill="none" stroke="black" d="M182,-34.5C182,-34.5 267,-34.5 267,-34.5 273,-34.5 279,-40.5 279,-46.5 279,-46.5 279,-310.5 279,-310.5 279,-316.5 273,-322.5 267,-322.5 267,-322.5 182,-322.5 182,-322.5 176,-322.5 170,-316.5 170,-310.5 170,-310.5 170,-46.5 170,-46.5 170,-40.5 176,-34.5 182,-34.5"/>
<text text-anchor="middle" x="224.5" y="-307.3" font-family="Times,serif" font-size="14.00">EventsController</text>
<polyline fill="none" stroke="black" points="170,-299.5 279,-299.5 "/>
<text text-anchor="start" x="178" y="-284.3" font-family="Times,serif" font-size="14.00">attend</text>
<text text-anchor="start" x="178" y="-269.3" font-family="Times,serif" font-size="14.00">cancel</text>
<text text-anchor="start" x="178" y="-254.3" font-family="Times,serif" font-size="14.00">create</text>
<text text-anchor="start" x="178" y="-239.3" font-family="Times,serif" font-size="14.00">destroy</text>
<text text-anchor="start" x="178" y="-224.3" font-family="Times,serif" font-size="14.00">edit</text>
<text text-anchor="start" x="178" y="-209.3" font-family="Times,serif" font-size="14.00">index</text>
<text text-anchor="start" x="178" y="-194.3" font-family="Times,serif" font-size="14.00">like</text>
<text text-anchor="start" x="178" y="-179.3" font-family="Times,serif" font-size="14.00">new</text>
<text text-anchor="start" x="178" y="-164.3" font-family="Times,serif" font-size="14.00">search</text>
<text text-anchor="start" x="178" y="-149.3" font-family="Times,serif" font-size="14.00">show</text>
<text text-anchor="start" x="178" y="-134.3" font-family="Times,serif" font-size="14.00">unlike</text>
<text text-anchor="start" x="178" y="-119.3" font-family="Times,serif" font-size="14.00">update</text>
<polyline fill="none" stroke="black" points="170,-111.5 279,-111.5 "/>
<polyline fill="none" stroke="black" points="170,-87.5 279,-87.5 "/>
<text text-anchor="start" x="178" y="-72.3" font-family="Times,serif" font-size="14.00">_layout</text>
<text text-anchor="start" x="178" y="-57.3" font-family="Times,serif" font-size="14.00">event_params</text>
<text text-anchor="start" x="178" y="-42.3" font-family="Times,serif" font-size="14.00">set_event</text>
</g>
<!-- CarsController -->
<g id="node4" class="node"><title>CarsController</title>
<path fill="none" stroke="black" d="M46,-136.5C46,-136.5 119,-136.5 119,-136.5 125,-136.5 131,-142.5 131,-148.5 131,-148.5 131,-307.5 131,-307.5 131,-313.5 125,-319.5 119,-319.5 119,-319.5 46,-319.5 46,-319.5 40,-319.5 34,-313.5 34,-307.5 34,-307.5 34,-148.5 34,-148.5 34,-142.5 40,-136.5 46,-136.5"/>
<text text-anchor="middle" x="82.5" y="-304.3" font-family="Times,serif" font-size="14.00">CarsController</text>
<polyline fill="none" stroke="black" points="34,-296.5 131,-296.5 "/>
<text text-anchor="start" x="42" y="-281.3" font-family="Times,serif" font-size="14.00">car_params</text>
<text text-anchor="start" x="42" y="-266.3" font-family="Times,serif" font-size="14.00">create</text>
<text text-anchor="start" x="42" y="-251.3" font-family="Times,serif" font-size="14.00">destroy</text>
<text text-anchor="start" x="42" y="-236.3" font-family="Times,serif" font-size="14.00">edit</text>
<text text-anchor="start" x="42" y="-221.3" font-family="Times,serif" font-size="14.00">index</text>
<text text-anchor="start" x="42" y="-206.3" font-family="Times,serif" font-size="14.00">new</text>
<text text-anchor="start" x="42" y="-191.3" font-family="Times,serif" font-size="14.00">show</text>
<polyline fill="none" stroke="black" points="34,-183.5 131,-183.5 "/>
<polyline fill="none" stroke="black" points="34,-159.5 131,-159.5 "/>
<text text-anchor="start" x="42" y="-144.3" font-family="Times,serif" font-size="14.00">_layout</text>
</g>
<!-- ResultsController -->
<g id="node5" class="node"><title>ResultsController</title>
<path fill="none" stroke="black" d="M318,-119.5C318,-119.5 406,-119.5 406,-119.5 412,-119.5 418,-125.5 418,-131.5 418,-131.5 418,-335.5 418,-335.5 418,-341.5 412,-347.5 406,-347.5 406,-347.5 318,-347.5 318,-347.5 312,-347.5 306,-341.5 306,-335.5 306,-335.5 306,-131.5 306,-131.5 306,-125.5 312,-119.5 318,-119.5"/>
<text text-anchor="middle" x="362" y="-332.3" font-family="Times,serif" font-size="14.00">ResultsController</text>
<polyline fill="none" stroke="black" points="306,-324.5 418,-324.5 "/>
<text text-anchor="start" x="314" y="-309.3" font-family="Times,serif" font-size="14.00">classawd</text>
<text text-anchor="start" x="314" y="-294.3" font-family="Times,serif" font-size="14.00">classfwd</text>
<text text-anchor="start" x="314" y="-279.3" font-family="Times,serif" font-size="14.00">classrwd</text>
<text text-anchor="start" x="314" y="-264.3" font-family="Times,serif" font-size="14.00">create</text>
<text text-anchor="start" x="314" y="-249.3" font-family="Times,serif" font-size="14.00">destroy</text>
<text text-anchor="start" x="314" y="-234.3" font-family="Times,serif" font-size="14.00">index</text>
<text text-anchor="start" x="314" y="-219.3" font-family="Times,serif" font-size="14.00">new</text>
<text text-anchor="start" x="314" y="-204.3" font-family="Times,serif" font-size="14.00">result_params</text>
<text text-anchor="start" x="314" y="-189.3" font-family="Times,serif" font-size="14.00">statistics</text>
<text text-anchor="start" x="314" y="-174.3" font-family="Times,serif" font-size="14.00">visitors</text>
<polyline fill="none" stroke="black" points="306,-166.5 418,-166.5 "/>
<polyline fill="none" stroke="black" points="306,-142.5 418,-142.5 "/>
<text text-anchor="start" x="314" y="-127.3" font-family="Times,serif" font-size="14.00">_layout</text>
</g>
<!-- ApplicationController -->
<g id="node6" class="node"><title>ApplicationController</title>
<path fill="none" stroke="black" d="M437,-374.5C437,-374.5 607,-374.5 607,-374.5 613,-374.5 619,-380.5 619,-386.5 619,-386.5 619,-455.5 619,-455.5 619,-461.5 613,-467.5 607,-467.5 607,-467.5 437,-467.5 437,-467.5 431,-467.5 425,-461.5 425,-455.5 425,-455.5 425,-386.5 425,-386.5 425,-380.5 431,-374.5 437,-374.5"/>
<text text-anchor="middle" x="522" y="-452.3" font-family="Times,serif" font-size="14.00">ApplicationController</text>
<polyline fill="none" stroke="black" points="425,-444.5 619,-444.5 "/>
<polyline fill="none" stroke="black" points="425,-420.5 619,-420.5 "/>
<text text-anchor="start" x="433" y="-405.3" font-family="Times,serif" font-size="14.00">configure_permitted_parameters</text>
<polyline fill="none" stroke="black" points="425,-397.5 619,-397.5 "/>
<text text-anchor="start" x="433" y="-382.3" font-family="Times,serif" font-size="14.00">_layout</text>
</g>
<!-- EnrollmentsController -->
<g id="node7" class="node"><title>EnrollmentsController</title>
<path fill="none" stroke="black" d="M471,-119.5C471,-119.5 586,-119.5 586,-119.5 592,-119.5 598,-125.5 598,-131.5 598,-131.5 598,-260.5 598,-260.5 598,-266.5 592,-272.5 586,-272.5 586,-272.5 471,-272.5 471,-272.5 465,-272.5 459,-266.5 459,-260.5 459,-260.5 459,-131.5 459,-131.5 459,-125.5 465,-119.5 471,-119.5"/>
<text text-anchor="middle" x="528.5" y="-257.3" font-family="Times,serif" font-size="14.00">EnrollmentsController</text>
<polyline fill="none" stroke="black" points="459,-249.5 598,-249.5 "/>
<text text-anchor="start" x="467" y="-234.3" font-family="Times,serif" font-size="14.00">create</text>
<text text-anchor="start" x="467" y="-219.3" font-family="Times,serif" font-size="14.00">destroy</text>
<text text-anchor="start" x="467" y="-204.3" font-family="Times,serif" font-size="14.00">enrollment_params</text>
<text text-anchor="start" x="467" y="-189.3" font-family="Times,serif" font-size="14.00">index</text>
<text text-anchor="start" x="467" y="-174.3" font-family="Times,serif" font-size="14.00">new</text>
<polyline fill="none" stroke="black" points="459,-166.5 598,-166.5 "/>
<polyline fill="none" stroke="black" points="459,-142.5 598,-142.5 "/>
<text text-anchor="start" x="467" y="-127.3" font-family="Times,serif" font-size="14.00">_layout</text>
</g>
<!-- UsersController -->
<g id="node8" class="node"><title>UsersController</title>
<path fill="none" stroke="black" d="M12,-425.5C12,-425.5 91,-425.5 91,-425.5 97,-425.5 103,-431.5 103,-437.5 103,-437.5 103,-596.5 103,-596.5 103,-602.5 97,-608.5 91,-608.5 91,-608.5 12,-608.5 12,-608.5 6,-608.5 0,-602.5 0,-596.5 0,-596.5 0,-437.5 0,-437.5 0,-431.5 6,-425.5 12,-425.5"/>
<text text-anchor="middle" x="51.5" y="-593.3" font-family="Times,serif" font-size="14.00">UsersController</text>
<polyline fill="none" stroke="black" points="0,-585.5 103,-585.5 "/>
<text text-anchor="start" x="8" y="-570.3" font-family="Times,serif" font-size="14.00">all</text>
<text text-anchor="start" x="8" y="-555.3" font-family="Times,serif" font-size="14.00">myevents</text>
<text text-anchor="start" x="8" y="-540.3" font-family="Times,serif" font-size="14.00">mygallery</text>
<text text-anchor="start" x="8" y="-525.3" font-family="Times,serif" font-size="14.00">show</text>
<text text-anchor="start" x="8" y="-510.3" font-family="Times,serif" font-size="14.00">usercars</text>
<text text-anchor="start" x="8" y="-495.3" font-family="Times,serif" font-size="14.00">userevents</text>
<text text-anchor="start" x="8" y="-480.3" font-family="Times,serif" font-size="14.00">userpage</text>
<polyline fill="none" stroke="black" points="0,-472.5 103,-472.5 "/>
<polyline fill="none" stroke="black" points="0,-448.5 103,-448.5 "/>
<text text-anchor="start" x="8" y="-433.3" font-family="Times,serif" font-size="14.00">_layout</text>
</g>
<!-- CommentsController -->
<g id="node9" class="node"><title>CommentsController</title>
<path fill="none" stroke="black" d="M148,-357.5C148,-357.5 256,-357.5 256,-357.5 262,-357.5 268,-363.5 268,-369.5 268,-369.5 268,-528.5 268,-528.5 268,-534.5 262,-540.5 256,-540.5 256,-540.5 148,-540.5 148,-540.5 142,-540.5 136,-534.5 136,-528.5 136,-528.5 136,-369.5 136,-369.5 136,-363.5 142,-357.5 148,-357.5"/>
<text text-anchor="middle" x="202" y="-525.3" font-family="Times,serif" font-size="14.00">CommentsController</text>
<polyline fill="none" stroke="black" points="136,-517.5 268,-517.5 "/>
<text text-anchor="start" x="144" y="-502.3" font-family="Times,serif" font-size="14.00">comment_params</text>
<text text-anchor="start" x="144" y="-487.3" font-family="Times,serif" font-size="14.00">create</text>
<text text-anchor="start" x="144" y="-472.3" font-family="Times,serif" font-size="14.00">destroy</text>
<text text-anchor="start" x="144" y="-457.3" font-family="Times,serif" font-size="14.00">edit</text>
<text text-anchor="start" x="144" y="-442.3" font-family="Times,serif" font-size="14.00">index</text>
<text text-anchor="start" x="144" y="-427.3" font-family="Times,serif" font-size="14.00">new</text>
<text text-anchor="start" x="144" y="-412.3" font-family="Times,serif" font-size="14.00">show</text>
<polyline fill="none" stroke="black" points="136,-404.5 268,-404.5 "/>
<polyline fill="none" stroke="black" points="136,-380.5 268,-380.5 "/>
<text text-anchor="start" x="144" y="-365.3" font-family="Times,serif" font-size="14.00">_layout</text>
</g>
</g>
</svg>
