<?xml version="1.0" encoding="UTF-8" standalone="no"?>
<!DOCTYPE svg PUBLIC "-//W3C//DTD SVG 1.1//EN"
 "http://www.w3.org/Graphics/SVG/1.1/DTD/svg11.dtd">
<!-- Generated by graphviz version 2.36.0 (20140111.2315)
 -->
<!-- Title: models_diagram Pages: 1 -->
<svg width="599pt" height="248pt"
 viewBox="0.00 0.00 599.00 248.00" xmlns="http://www.w3.org/2000/svg" xmlns:xlink="http://www.w3.org/1999/xlink">
<g id="graph0" class="graph" transform="scale(1 1) rotate(0) translate(4 244)">
<title>models_diagram</title>
<polygon fill="none" stroke="none" points="-4,4 -4,-244 595,-244 595,4 -4,4"/>
<!-- _diagram_info -->
<g id="node1" class="node"><title>_diagram_info</title>
<text text-anchor="start" x="8" y="-225.6" font-family="Times,serif" font-size="13.00">Models diagram</text>
<text text-anchor="start" x="8" y="-211.6" font-family="Times,serif" font-size="13.00">Date: Feb 23 2016 &#45; 22:02</text>
<text text-anchor="start" x="8" y="-197.6" font-family="Times,serif" font-size="13.00">Migration version: 20160222153846</text>
<text text-anchor="start" x="8" y="-183.6" font-family="Times,serif" font-size="13.00">Generated by RailRoady 1.4.2</text>
<text text-anchor="start" x="8" y="-169.6" font-family="Times,serif" font-size="13.00">http://railroady.prestonlee.com</text>
</g>
<!-- Enrollment -->
<g id="node2" class="node"><title>Enrollment</title>
<ellipse fill="none" stroke="black" cx="83" cy="-18" rx="50.5427" ry="18"/>
<text text-anchor="middle" x="83" y="-14.3" font-family="Times,serif" font-size="14.00">Enrollment</text>
</g>
<!-- Result -->
<g id="node3" class="node"><title>Result</title>
<ellipse fill="none" stroke="black" cx="185" cy="-18" rx="33.2209" ry="18"/>
<text text-anchor="middle" x="185" y="-14.3" font-family="Times,serif" font-size="14.00">Result</text>
</g>
<!-- Car -->
<g id="node4" class="node"><title>Car</title>
<ellipse fill="none" stroke="black" cx="263" cy="-18" rx="27" ry="18"/>
<text text-anchor="middle" x="263" y="-14.3" font-family="Times,serif" font-size="14.00">Car</text>
</g>
<!-- Event -->
<g id="node5" class="node"><title>Event</title>
<ellipse fill="none" stroke="black" cx="263" cy="-201" rx="31.2965" ry="18"/>
<text text-anchor="middle" x="263" y="-197.3" font-family="Times,serif" font-size="14.00">Event</text>
</g>
<!-- Event&#45;&gt;Enrollment -->
<g id="edge4" class="edge"><title>Event&#45;&gt;Enrollment</title>
<path fill="none" stroke="#1b64e2" d="M242.052,-178.935C208.283,-144.979 142.031,-78.3585 106.627,-42.7586"/>
<ellipse fill="none" stroke="#1b64e2" cx="245.142" cy="-182.043" rx="4.00002" ry="4.00002"/>
<polygon fill="#1b64e2" stroke="#1b64e2" points="106.203,-42.3318 102.342,-32.068 102.677,-38.7865 99.1514,-35.2412 99.1514,-35.2412 99.1514,-35.2412 102.677,-38.7865 95.9606,-38.4143 106.203,-42.3318 106.203,-42.3318"/>
</g>
<!-- Event&#45;&gt;Result -->
<g id="edge2" class="edge"><title>Event&#45;&gt;Result</title>
<path fill="none" stroke="#49384e" d="M251.267,-176.211C244.037,-161.315 234.707,-141.662 227,-124 215.409,-97.4357 203.22,-66.5932 194.977,-45.2397"/>
<ellipse fill="none" stroke="#49384e" cx="253.084" cy="-179.935" rx="4.00002" ry="4.00002"/>
<polygon fill="#49384e" stroke="#49384e" points="194.961,-45.1981 195.576,-34.2495 193.168,-40.5305 191.375,-35.863 191.375,-35.863 191.375,-35.863 193.168,-40.5305 187.175,-37.4765 194.961,-45.1981 194.961,-45.1981"/>
</g>
<!-- User -->
<g id="node6" class="node"><title>User</title>
<ellipse fill="none" stroke="black" cx="263" cy="-106" rx="26.949" ry="18"/>
<text text-anchor="middle" x="263" y="-102.3" font-family="Times,serif" font-size="14.00">User</text>
</g>
<!-- Event&#45;&gt;User -->
<g id="edge3" class="edge"><title>Event&#45;&gt;User</title>
<path fill="none" stroke="#3b3115" d="M256.934,-174.952C256.068,-162.328 256.024,-147.002 256.802,-134.102"/>
<ellipse fill="none" stroke="#3b3115" cx="257.286" cy="-178.958" rx="4" ry="4"/>
<polygon fill="#3b3115" stroke="#3b3115" points="256.817,-133.915 262.132,-124.323 257.233,-128.932 257.648,-123.949 257.648,-123.949 257.648,-123.949 257.233,-128.932 253.163,-123.576 256.817,-133.915 256.817,-133.915"/>
</g>
<!-- Comment -->
<g id="node7" class="node"><title>Comment</title>
<ellipse fill="none" stroke="black" cx="545" cy="-18" rx="46.2191" ry="18"/>
<text text-anchor="middle" x="545" y="-14.3" font-family="Times,serif" font-size="14.00">Comment</text>
</g>
<!-- Event&#45;&gt;Comment -->
<g id="edge5" class="edge"><title>Event&#45;&gt;Comment</title>
<path fill="none" stroke="#105b45" d="M292.717,-184.652C320.654,-169.93 363.385,-146.654 399,-124 441.439,-97.0048 488.282,-62.4048 517.18,-40.4614"/>
<ellipse fill="none" stroke="#105b45" cx="289.139" cy="-186.529" rx="4.00002" ry="4.00002"/>
<polygon fill="#105b45" stroke="#105b45" points="517.239,-40.4159 527.92,-37.931 521.216,-37.3843 525.192,-34.3526 525.192,-34.3526 525.192,-34.3526 521.216,-37.3843 522.463,-30.7741 517.239,-40.4159 517.239,-40.4159"/>
</g>
<!-- ActsAsVotable::Vote -->
<g id="node8" class="node"><title>ActsAsVotable::Vote</title>
<ellipse fill="none" stroke="black" cx="394" cy="-18" rx="86.1637" ry="18"/>
<text text-anchor="middle" x="394" y="-14.3" font-family="Times,serif" font-size="14.00">ActsAsVotable::Vote</text>
</g>
<!-- Event&#45;&gt;ActsAsVotable::Vote -->
<g id="edge1" class="edge"><title>Event&#45;&gt;ActsAsVotable::Vote</title>
<path fill="none" stroke="#f12aba" d="M279.605,-177.057C304.173,-143.112 350.047,-79.7292 375.605,-44.4159"/>
<ellipse fill="none" stroke="#f12aba" cx="276.971" cy="-180.697" rx="4.00002" ry="4.00002"/>
<polygon fill="#f12aba" stroke="#f12aba" points="375.777,-44.1786 385.285,-38.7161 378.708,-40.1281 381.64,-36.0777 381.64,-36.0777 381.64,-36.0777 378.708,-40.1281 377.994,-33.4393 375.777,-44.1786 375.777,-44.1786"/>
<text text-anchor="middle" x="369" y="-102.3" font-family="Times,serif" font-size="14.00">votes_for</text>
</g>
<!-- User&#45;&gt;Enrollment -->
<g id="edge7" class="edge"><title>User&#45;&gt;Enrollment</title>
<path fill="none" stroke="#740666" d="M234.015,-91.1516C203.369,-76.5096 154.885,-53.3452 121.151,-37.2277"/>
<ellipse fill="none" stroke="#740666" cx="238.036" cy="-93.0725" rx="4.00002" ry="4.00002"/>
<polygon fill="#740666" stroke="#740666" points="121.078,-37.1926 113.994,-28.8212 116.566,-35.0371 112.054,-32.8816 112.054,-32.8816 112.054,-32.8816 116.566,-35.0371 110.114,-36.942 121.078,-37.1926 121.078,-37.1926"/>
</g>
<!-- User&#45;&gt;Result -->
<g id="edge11" class="edge"><title>User&#45;&gt;Result</title>
<path fill="none" stroke="#de8a1f" d="M246.896,-82.8866C239.878,-73.6777 231.356,-63.0457 223,-54 218.867,-49.5261 214.253,-44.963 209.704,-40.6728"/>
<ellipse fill="none" stroke="#de8a1f" cx="249.313" cy="-86.1006" rx="4.00002" ry="4.00002"/>
<polygon fill="#de8a1f" stroke="#de8a1f" points="209.565,-40.545 205.252,-30.4627 205.885,-37.1597 202.206,-33.7744 202.206,-33.7744 202.206,-33.7744 205.885,-37.1597 199.159,-37.0861 209.565,-40.545 209.565,-40.545"/>
</g>
<!-- User&#45;&gt;Car -->
<g id="edge10" class="edge"><title>User&#45;&gt;Car</title>
<path fill="none" stroke="#e6f026" d="M263,-79.3391C263,-68.8546 263,-56.7182 263,-46.091"/>
<ellipse fill="none" stroke="#e6f026" cx="263" cy="-83.5966" rx="4" ry="4"/>
<polygon fill="#e6f026" stroke="#e6f026" points="263,-46.084 267.5,-36.084 263,-41.084 263,-36.084 263,-36.084 263,-36.084 263,-41.084 258.5,-36.0841 263,-46.084 263,-46.084"/>
</g>
<!-- User&#45;&gt;Event -->
<g id="edge8" class="edge"><title>User&#45;&gt;Event</title>
<path fill="none" stroke="#7b3e47" d="M269.073,-132.148C269.927,-144.689 269.973,-159.877 269.21,-172.702"/>
<ellipse fill="none" stroke="#7b3e47" cx="268.702" cy="-127.934" rx="4" ry="4"/>
<polygon fill="#7b3e47" stroke="#7b3e47" points="269.187,-172.976 263.879,-182.572 268.776,-177.959 268.364,-182.942 268.364,-182.942 268.364,-182.942 268.776,-177.959 272.849,-183.313 269.187,-172.976 269.187,-172.976"/>
</g>
<!-- User&#45;&gt;Comment -->
<g id="edge9" class="edge"><title>User&#45;&gt;Comment</title>
<path fill="none" stroke="#c37d28" d="M295.319,-95.144C345.653,-79.7938 442.911,-50.1335 500.053,-32.7074"/>
<ellipse fill="none" stroke="#c37d28" cx="291.358" cy="-96.3517" rx="4.00001" ry="4.00001"/>
<polygon fill="#c37d28" stroke="#c37d28" points="500.327,-32.6236 511.205,-34.0109 505.11,-31.1651 509.892,-29.7066 509.892,-29.7066 509.892,-29.7066 505.11,-31.1651 508.58,-25.4023 500.327,-32.6236 500.327,-32.6236"/>
</g>
<!-- User&#45;&gt;ActsAsVotable::Vote -->
<g id="edge6" class="edge"><title>User&#45;&gt;ActsAsVotable::Vote</title>
<path fill="none" stroke="#08c37a" d="M282.267,-84.2811C292.277,-74.2914 305.093,-62.6348 318,-54 326.512,-48.3054 336.099,-43.0929 345.525,-38.5288"/>
<ellipse fill="none" stroke="#08c37a" cx="279.221" cy="-87.3873" rx="4.00002" ry="4.00002"/>
<polygon fill="#08c37a" stroke="#08c37a" points="345.784,-38.408 356.749,-38.2666 350.317,-36.2975 354.85,-34.1871 354.85,-34.1871 354.85,-34.1871 350.317,-36.2975 352.95,-30.1076 345.784,-38.408 345.784,-38.408"/>
<text text-anchor="middle" x="332.5" y="-58.3" font-family="Times,serif" font-size="14.00">votes</text>
</g>
</g>
</svg>
