<?xml version="1.0" encoding="UTF-8" standalone="no"?>
<!DOCTYPE svg PUBLIC "-//W3C//DTD SVG 1.1//EN"
 "http://www.w3.org/Graphics/SVG/1.1/DTD/svg11.dtd">
<!-- Generated by graphviz version 2.36.0 (20140111.2315)
 -->
<!-- Title: models_diagram Pages: 1 -->
<svg width="827pt" height="946pt"
 viewBox="0.00 0.00 827.00 946.00" xmlns="http://www.w3.org/2000/svg" xmlns:xlink="http://www.w3.org/1999/xlink">
<g id="graph0" class="graph" transform="scale(1 1) rotate(0) translate(4 942)">
<title>models_diagram</title>
<polygon fill="none" stroke="none" points="-4,4 -4,-942 823,-942 823,4 -4,4"/>
<!-- _diagram_info -->
<g id="node1" class="node"><title>_diagram_info</title>
<text text-anchor="start" x="74" y="-803.6" font-family="Times,serif" font-size="13.00">Models diagram</text>
<text text-anchor="start" x="74" y="-789.6" font-family="Times,serif" font-size="13.00">Date: Feb 23 2016 &#45; 22:02</text>
<text text-anchor="start" x="74" y="-775.6" font-family="Times,serif" font-size="13.00">Migration version: 20160222153846</text>
<text text-anchor="start" x="74" y="-761.6" font-family="Times,serif" font-size="13.00">Generated by RailRoady 1.4.2</text>
<text text-anchor="start" x="74" y="-747.6" font-family="Times,serif" font-size="13.00">http://railroady.prestonlee.com</text>
</g>
<!-- Enrollment -->
<g id="node2" class="node"><title>Enrollment</title>
<path fill="none" stroke="black" d="M11.5,-38.5C11.5,-38.5 118.5,-38.5 118.5,-38.5 124.5,-38.5 130.5,-44.5 130.5,-50.5 130.5,-50.5 130.5,-147.5 130.5,-147.5 130.5,-153.5 124.5,-159.5 118.5,-159.5 118.5,-159.5 11.5,-159.5 11.5,-159.5 5.5,-159.5 -0.5,-153.5 -0.5,-147.5 -0.5,-147.5 -0.5,-50.5 -0.5,-50.5 -0.5,-44.5 5.5,-38.5 11.5,-38.5"/>
<text text-anchor="middle" x="65" y="-144.3" font-family="Times,serif" font-size="14.00">Enrollment</text>
<polyline fill="none" stroke="black" points="-0.5,-136.5 130.5,-136.5 "/>
<text text-anchor="start" x="7.5" y="-121.3" font-family="Times,serif" font-size="14.00">id :INTEGER</text>
<text text-anchor="start" x="7.5" y="-106.3" font-family="Times,serif" font-size="14.00">created_at :datetime</text>
<text text-anchor="start" x="7.5" y="-91.3" font-family="Times,serif" font-size="14.00">updated_at :datetime</text>
<text text-anchor="start" x="7.5" y="-76.3" font-family="Times,serif" font-size="14.00">car_id :integer</text>
<text text-anchor="start" x="7.5" y="-61.3" font-family="Times,serif" font-size="14.00">event_id :integer</text>
<text text-anchor="start" x="7.5" y="-46.3" font-family="Times,serif" font-size="14.00">user_id :integer</text>
</g>
<!-- Result -->
<g id="node3" class="node"><title>Result</title>
<path fill="none" stroke="black" d="M160.5,-16C160.5,-16 267.5,-16 267.5,-16 273.5,-16 279.5,-22 279.5,-28 279.5,-28 279.5,-170 279.5,-170 279.5,-176 273.5,-182 267.5,-182 267.5,-182 160.5,-182 160.5,-182 154.5,-182 148.5,-176 148.5,-170 148.5,-170 148.5,-28 148.5,-28 148.5,-22 154.5,-16 160.5,-16"/>
<text text-anchor="middle" x="214" y="-166.8" font-family="Times,serif" font-size="14.00">Result</text>
<polyline fill="none" stroke="black" points="148.5,-159 279.5,-159 "/>
<text text-anchor="start" x="156.5" y="-143.8" font-family="Times,serif" font-size="14.00">id :INTEGER</text>
<text text-anchor="start" x="156.5" y="-128.8" font-family="Times,serif" font-size="14.00">created_at :datetime</text>
<text text-anchor="start" x="156.5" y="-113.8" font-family="Times,serif" font-size="14.00">updated_at :datetime</text>
<text text-anchor="start" x="156.5" y="-98.8" font-family="Times,serif" font-size="14.00">event_id :integer</text>
<text text-anchor="start" x="156.5" y="-83.8" font-family="Times,serif" font-size="14.00">result :float</text>
<text text-anchor="start" x="156.5" y="-68.8" font-family="Times,serif" font-size="14.00">user_id :integer</text>
<text text-anchor="start" x="156.5" y="-53.8" font-family="Times,serif" font-size="14.00">user_result :varchar</text>
<text text-anchor="start" x="156.5" y="-38.8" font-family="Times,serif" font-size="14.00">visitor_id :integer</text>
<text text-anchor="start" x="156.5" y="-23.8" font-family="Times,serif" font-size="14.00">car_id :integer</text>
</g>
<!-- Car -->
<g id="node4" class="node"><title>Car</title>
<path fill="none" stroke="black" d="M310,-1C310,-1 460,-1 460,-1 466,-1 472,-7 472,-13 472,-13 472,-185 472,-185 472,-191 466,-197 460,-197 460,-197 310,-197 310,-197 304,-197 298,-191 298,-185 298,-185 298,-13 298,-13 298,-7 304,-1 310,-1"/>
<text text-anchor="middle" x="385" y="-181.8" font-family="Times,serif" font-size="14.00">Car</text>
<polyline fill="none" stroke="black" points="298,-174 472,-174 "/>
<text text-anchor="start" x="306" y="-158.8" font-family="Times,serif" font-size="14.00">id :INTEGER</text>
<text text-anchor="start" x="306" y="-143.8" font-family="Times,serif" font-size="14.00">created_at :datetime</text>
<text text-anchor="start" x="306" y="-128.8" font-family="Times,serif" font-size="14.00">updated_at :datetime</text>
<text text-anchor="start" x="306" y="-113.8" font-family="Times,serif" font-size="14.00">mark :varchar</text>
<text text-anchor="start" x="306" y="-98.8" font-family="Times,serif" font-size="14.00">user_id :integer</text>
<text text-anchor="start" x="306" y="-83.8" font-family="Times,serif" font-size="14.00">horsepower :integer</text>
<text text-anchor="start" x="306" y="-68.8" font-family="Times,serif" font-size="14.00">wheeldrive :varchar</text>
<text text-anchor="start" x="306" y="-53.8" font-family="Times,serif" font-size="14.00">avatar_file_name :varchar</text>
<text text-anchor="start" x="306" y="-38.8" font-family="Times,serif" font-size="14.00">avatar_content_type :varchar</text>
<text text-anchor="start" x="306" y="-23.8" font-family="Times,serif" font-size="14.00">avatar_file_size :integer</text>
<text text-anchor="start" x="306" y="-8.8" font-family="Times,serif" font-size="14.00">avatar_updated_at :datetime</text>
</g>
<!-- Event -->
<g id="node5" class="node"><title>Event</title>
<path fill="none" stroke="black" d="M310,-621C310,-621 460,-621 460,-621 466,-621 472,-627 472,-633 472,-633 472,-925 472,-925 472,-931 466,-937 460,-937 460,-937 310,-937 310,-937 304,-937 298,-931 298,-925 298,-925 298,-633 298,-633 298,-627 304,-621 310,-621"/>
<text text-anchor="middle" x="385" y="-921.8" font-family="Times,serif" font-size="14.00">Event</text>
<polyline fill="none" stroke="black" points="298,-914 472,-914 "/>
<text text-anchor="start" x="306" y="-898.8" font-family="Times,serif" font-size="14.00">id :INTEGER</text>
<text text-anchor="start" x="306" y="-883.8" font-family="Times,serif" font-size="14.00">description :text</text>
<text text-anchor="start" x="306" y="-868.8" font-family="Times,serif" font-size="14.00">created_at :datetime</text>
<text text-anchor="start" x="306" y="-853.8" font-family="Times,serif" font-size="14.00">updated_at :datetime</text>
<text text-anchor="start" x="306" y="-838.8" font-family="Times,serif" font-size="14.00">title :varchar</text>
<text text-anchor="start" x="306" y="-823.8" font-family="Times,serif" font-size="14.00">adress :varchar</text>
<text text-anchor="start" x="306" y="-808.8" font-family="Times,serif" font-size="14.00">user_id :integer</text>
<text text-anchor="start" x="306" y="-793.8" font-family="Times,serif" font-size="14.00">comment_id :integer</text>
<text text-anchor="start" x="306" y="-778.8" font-family="Times,serif" font-size="14.00">date :datetime</text>
<text text-anchor="start" x="306" y="-763.8" font-family="Times,serif" font-size="14.00">latitude :loat</text>
<text text-anchor="start" x="306" y="-748.8" font-family="Times,serif" font-size="14.00">longitude :loat</text>
<text text-anchor="start" x="306" y="-733.8" font-family="Times,serif" font-size="14.00">avatar_file_name :varchar</text>
<text text-anchor="start" x="306" y="-718.8" font-family="Times,serif" font-size="14.00">avatar_content_type :varchar</text>
<text text-anchor="start" x="306" y="-703.8" font-family="Times,serif" font-size="14.00">avatar_file_size :integer</text>
<text text-anchor="start" x="306" y="-688.8" font-family="Times,serif" font-size="14.00">avatar_updated_at :datetime</text>
<text text-anchor="start" x="306" y="-673.8" font-family="Times,serif" font-size="14.00">video_file_name :varchar</text>
<text text-anchor="start" x="306" y="-658.8" font-family="Times,serif" font-size="14.00">video_content_type :varchar</text>
<text text-anchor="start" x="306" y="-643.8" font-family="Times,serif" font-size="14.00">video_file_size :integer</text>
<text text-anchor="start" x="306" y="-628.8" font-family="Times,serif" font-size="14.00">video_updated_at :datetime</text>
</g>
<!-- Event&#45;&gt;Enrollment -->
<g id="edge4" class="edge"><title>Event&#45;&gt;Enrollment</title>
<path fill="none" stroke="#ec3047" d="M291.983,-623.81C290.667,-622.518 289.339,-621.248 288,-620 261.239,-595.066 238.459,-610.063 215,-582 113.652,-460.761 80.6567,-271.197 70.0052,-169.698"/>
<ellipse fill="none" stroke="#ec3047" cx="294.873" cy="-626.749" rx="4.00002" ry="4.00002"/>
<polygon fill="#ec3047" stroke="#ec3047" points="69.9862,-169.508 73.4624,-159.108 69.4856,-164.534 68.985,-159.559 68.985,-159.559 68.985,-159.559 69.4856,-164.534 64.5076,-160.009 69.9862,-169.508 69.9862,-169.508"/>
</g>
<!-- Event&#45;&gt;Result -->
<g id="edge2" class="edge"><title>Event&#45;&gt;Result</title>
<path fill="none" stroke="#bb201a" d="M294.387,-628.309C287.378,-613.008 281.07,-597.416 276,-582 232.977,-451.181 219.612,-291.236 215.575,-192.487"/>
<ellipse fill="none" stroke="#bb201a" cx="296.19" cy="-632.171" rx="4.00002" ry="4.00002"/>
<polygon fill="#bb201a" stroke="#bb201a" points="215.565,-192.229 219.677,-182.064 215.373,-187.233 215.181,-182.237 215.181,-182.237 215.181,-182.237 215.373,-187.233 210.684,-182.41 215.565,-192.229 215.565,-192.229"/>
</g>
<!-- User -->
<g id="node6" class="node"><title>User</title>
<path fill="none" stroke="black" d="M297,-250.5C297,-250.5 473,-250.5 473,-250.5 479,-250.5 485,-256.5 485,-262.5 485,-262.5 485,-569.5 485,-569.5 485,-575.5 479,-581.5 473,-581.5 473,-581.5 297,-581.5 297,-581.5 291,-581.5 285,-575.5 285,-569.5 285,-569.5 285,-262.5 285,-262.5 285,-256.5 291,-250.5 297,-250.5"/>
<text text-anchor="middle" x="385" y="-566.3" font-family="Times,serif" font-size="14.00">User</text>
<polyline fill="none" stroke="black" points="285,-558.5 485,-558.5 "/>
<text text-anchor="start" x="293" y="-543.3" font-family="Times,serif" font-size="14.00">id :INTEGER</text>
<text text-anchor="start" x="293" y="-528.3" font-family="Times,serif" font-size="14.00">email :varchar</text>
<text text-anchor="start" x="293" y="-513.3" font-family="Times,serif" font-size="14.00">encrypted_password :varchar</text>
<text text-anchor="start" x="293" y="-498.3" font-family="Times,serif" font-size="14.00">reset_password_token :varchar</text>
<text text-anchor="start" x="293" y="-483.3" font-family="Times,serif" font-size="14.00">reset_password_sent_at :datetime</text>
<text text-anchor="start" x="293" y="-468.3" font-family="Times,serif" font-size="14.00">remember_created_at :datetime</text>
<text text-anchor="start" x="293" y="-453.3" font-family="Times,serif" font-size="14.00">sign_in_count :integer</text>
<text text-anchor="start" x="293" y="-438.3" font-family="Times,serif" font-size="14.00">current_sign_in_at :datetime</text>
<text text-anchor="start" x="293" y="-423.3" font-family="Times,serif" font-size="14.00">last_sign_in_at :datetime</text>
<text text-anchor="start" x="293" y="-408.3" font-family="Times,serif" font-size="14.00">current_sign_in_ip :varchar</text>
<text text-anchor="start" x="293" y="-393.3" font-family="Times,serif" font-size="14.00">last_sign_in_ip :varchar</text>
<text text-anchor="start" x="293" y="-378.3" font-family="Times,serif" font-size="14.00">created_at :datetime</text>
<text text-anchor="start" x="293" y="-363.3" font-family="Times,serif" font-size="14.00">updated_at :datetime</text>
<text text-anchor="start" x="293" y="-348.3" font-family="Times,serif" font-size="14.00">event_id :integer</text>
<text text-anchor="start" x="293" y="-333.3" font-family="Times,serif" font-size="14.00">comment_id :integer</text>
<text text-anchor="start" x="293" y="-318.3" font-family="Times,serif" font-size="14.00">car_id :integer</text>
<text text-anchor="start" x="293" y="-303.3" font-family="Times,serif" font-size="14.00">avatar_file_name :varchar</text>
<text text-anchor="start" x="293" y="-288.3" font-family="Times,serif" font-size="14.00">avatar_content_type :varchar</text>
<text text-anchor="start" x="293" y="-273.3" font-family="Times,serif" font-size="14.00">avatar_file_size :integer</text>
<text text-anchor="start" x="293" y="-258.3" font-family="Times,serif" font-size="14.00">avatar_updated_at :datetime</text>
</g>
<!-- Event&#45;&gt;User -->
<g id="edge3" class="edge"><title>Event&#45;&gt;User</title>
<path fill="none" stroke="#5a2119" d="M378.271,-612.711C378.252,-605.775 378.246,-598.809 378.253,-591.855"/>
<ellipse fill="none" stroke="#5a2119" cx="378.287" cy="-616.973" rx="4" ry="4"/>
<polygon fill="#5a2119" stroke="#5a2119" points="378.253,-591.678 382.773,-581.687 378.263,-586.678 378.273,-581.678 378.273,-581.678 378.273,-581.678 378.263,-586.678 373.773,-581.669 378.253,-591.678 378.253,-591.678"/>
</g>
<!-- Comment -->
<g id="node7" class="node"><title>Comment</title>
<path fill="none" stroke="black" d="M692.5,-38.5C692.5,-38.5 807.5,-38.5 807.5,-38.5 813.5,-38.5 819.5,-44.5 819.5,-50.5 819.5,-50.5 819.5,-147.5 819.5,-147.5 819.5,-153.5 813.5,-159.5 807.5,-159.5 807.5,-159.5 692.5,-159.5 692.5,-159.5 686.5,-159.5 680.5,-153.5 680.5,-147.5 680.5,-147.5 680.5,-50.5 680.5,-50.5 680.5,-44.5 686.5,-38.5 692.5,-38.5"/>
<text text-anchor="middle" x="750" y="-144.3" font-family="Times,serif" font-size="14.00">Comment</text>
<polyline fill="none" stroke="black" points="680.5,-136.5 819.5,-136.5 "/>
<text text-anchor="start" x="688.5" y="-121.3" font-family="Times,serif" font-size="14.00">id :INTEGER</text>
<text text-anchor="start" x="688.5" y="-106.3" font-family="Times,serif" font-size="14.00">created_at :datetime</text>
<text text-anchor="start" x="688.5" y="-91.3" font-family="Times,serif" font-size="14.00">updated_at :datetime</text>
<text text-anchor="start" x="688.5" y="-76.3" font-family="Times,serif" font-size="14.00">newcomment :varchar</text>
<text text-anchor="start" x="688.5" y="-61.3" font-family="Times,serif" font-size="14.00">user_id :integer</text>
<text text-anchor="start" x="688.5" y="-46.3" font-family="Times,serif" font-size="14.00">event_id :integer</text>
</g>
<!-- Event&#45;&gt;Comment -->
<g id="edge5" class="edge"><title>Event&#45;&gt;Comment</title>
<path fill="none" stroke="#c0c1cd" d="M479.036,-719.682C527.417,-685.18 583.524,-637.413 619,-582 702.428,-451.686 733.198,-268.864 744.186,-170.042"/>
<ellipse fill="none" stroke="#c0c1cd" cx="475.532" cy="-722.156" rx="4.00002" ry="4.00002"/>
<polygon fill="#c0c1cd" stroke="#c0c1cd" points="744.21,-169.815 749.754,-160.353 744.745,-164.843 745.279,-159.872 745.279,-159.872 745.279,-159.872 744.745,-164.843 740.805,-159.391 744.21,-169.815 744.21,-169.815"/>
</g>
<!-- ActsAsVotable::Vote -->
<g id="node8" class="node"><title>ActsAsVotable::Vote</title>
<ellipse fill="none" stroke="black" cx="576" cy="-99" rx="86.1637" ry="18"/>
<text text-anchor="middle" x="576" y="-95.3" font-family="Times,serif" font-size="14.00">ActsAsVotable::Vote</text>
</g>
<!-- Event&#45;&gt;ActsAsVotable::Vote -->
<g id="edge1" class="edge"><title>Event&#45;&gt;ActsAsVotable::Vote</title>
<path fill="none" stroke="#2585ab" d="M475.508,-626.906C482.435,-612.03 488.757,-596.915 494,-582 552.368,-415.951 569.98,-202.669 574.565,-127.61"/>
<ellipse fill="none" stroke="#2585ab" cx="473.773" cy="-630.572" rx="4.00002" ry="4.00002"/>
<polygon fill="#2585ab" stroke="#2585ab" points="574.592,-127.151 579.665,-117.43 574.882,-122.16 575.172,-117.168 575.172,-117.168 575.172,-117.168 574.882,-122.16 570.68,-116.907 574.592,-127.151 574.592,-127.151"/>
<text text-anchor="middle" x="589" y="-412.3" font-family="Times,serif" font-size="14.00">votes_for</text>
</g>
<!-- User&#45;&gt;Enrollment -->
<g id="edge7" class="edge"><title>User&#45;&gt;Enrollment</title>
<path fill="none" stroke="#dd65f3" d="M278.445,-329.172C233.502,-290.942 181.793,-244.179 139,-198 130.224,-188.529 121.459,-178.055 113.19,-167.582"/>
<ellipse fill="none" stroke="#dd65f3" cx="281.69" cy="-331.922" rx="4.00002" ry="4.00002"/>
<polygon fill="#dd65f3" stroke="#dd65f3" points="113.113,-167.483 110.524,-156.827 110.043,-163.536 106.972,-159.59 106.972,-159.59 106.972,-159.59 110.043,-163.536 103.421,-162.353 113.113,-167.483 113.113,-167.483"/>
</g>
<!-- User&#45;&gt;Result -->
<g id="edge11" class="edge"><title>User&#45;&gt;Result</title>
<path fill="none" stroke="#d01582" d="M330.342,-242.974C325.041,-233.543 319.271,-224.471 313,-216 305.067,-205.283 298.474,-207.382 289,-198 286.331,-195.357 283.676,-192.616 281.046,-189.804"/>
<ellipse fill="none" stroke="#d01582" cx="332.393" cy="-246.74" rx="4.00002" ry="4.00002"/>
<polygon fill="#d01582" stroke="#d01582" points="280.871,-189.611 277.478,-179.184 277.509,-185.91 274.147,-182.209 274.147,-182.209 274.147,-182.209 277.509,-185.91 270.816,-185.235 280.871,-189.611 280.871,-189.611"/>
</g>
<!-- User&#45;&gt;Car -->
<g id="edge10" class="edge"><title>User&#45;&gt;Car</title>
<path fill="none" stroke="#c10ce7" d="M385,-242.044C385,-230.243 385,-218.559 385,-207.261"/>
<ellipse fill="none" stroke="#c10ce7" cx="385" cy="-246.12" rx="4" ry="4"/>
<polygon fill="#c10ce7" stroke="#c10ce7" points="385,-207 389.5,-197 385,-202 385,-197 385,-197 385,-197 385,-202 380.5,-197 385,-207 385,-207"/>
</g>
<!-- User&#45;&gt;Event -->
<g id="edge8" class="edge"><title>User&#45;&gt;Event</title>
<path fill="none" stroke="#057902" d="M391.745,-589.881C391.754,-596.876 391.751,-603.887 391.734,-610.871"/>
<ellipse fill="none" stroke="#057902" cx="391.736" cy="-585.678" rx="4" ry="4"/>
<polygon fill="#057902" stroke="#057902" points="391.733,-610.973 387.199,-620.957 391.716,-615.973 391.699,-620.973 391.699,-620.973 391.699,-620.973 391.716,-615.973 396.199,-620.988 391.733,-610.973 391.733,-610.973"/>
</g>
<!-- User&#45;&gt;Comment -->
<g id="edge9" class="edge"><title>User&#45;&gt;Comment</title>
<path fill="none" stroke="#f170e7" d="M491.268,-278.163C502.335,-267.886 513.963,-258.306 526,-250 582.35,-211.117 615.213,-237.687 671,-198 682.936,-189.508 694.038,-178.745 703.924,-167.481"/>
<ellipse fill="none" stroke="#f170e7" cx="488.08" cy="-281.187" rx="4.00002" ry="4.00002"/>
<polygon fill="#f170e7" stroke="#f170e7" points="704.111,-167.26 714.005,-162.531 707.34,-163.443 710.569,-159.625 710.569,-159.625 710.569,-159.625 707.34,-163.443 707.134,-156.719 704.111,-167.26 704.111,-167.26"/>
</g>
<!-- User&#45;&gt;ActsAsVotable::Vote -->
<g id="edge6" class="edge"><title>User&#45;&gt;ActsAsVotable::Vote</title>
<path fill="none" stroke="#41022a" d="M449.06,-243.158C454.096,-233.784 459.411,-224.665 465,-216 468.357,-210.795 520.565,-156.894 552.168,-124.429"/>
<ellipse fill="none" stroke="#41022a" cx="447.126" cy="-246.832" rx="4.00002" ry="4.00002"/>
<polygon fill="#41022a" stroke="#41022a" points="552.359,-124.234 562.56,-120.211 555.847,-120.653 559.336,-117.071 559.336,-117.071 559.336,-117.071 555.847,-120.653 556.113,-113.931 552.359,-124.234 552.359,-124.234"/>
<text text-anchor="middle" x="479.5" y="-220.3" font-family="Times,serif" font-size="14.00">votes</text>
</g>
</g>
</svg>
